<svg width="52" height="55" viewBox="0 0 52 55" fill="none" xmlns="http://www.w3.org/2000/svg">
<path d="M10.0618 11H44.5118C47.7618 11 49.3998 12.6225 49.3998 15.9225V39.0775C49.3998 42.35 47.7618 44 44.5118 44H10.0618C6.81183 44 5.17383 42.35 5.17383 39.0775V15.9225C5.17383 12.6225 6.81183 11 10.0618 11ZM27.2738 34.65L44.7978 19.4425C45.4218 18.8925 45.9158 17.6275 45.1358 16.5C44.3818 15.3725 43.0038 15.345 42.0938 16.0325L27.2738 26.6475L12.4798 16.0325C11.5698 15.345 10.1918 15.3725 9.43783 16.5C8.65783 17.6275 9.15183 18.8925 9.77583 19.4425L27.2738 34.65Z" fill="black"/>
</svg>
