<svg width="28" height="29" viewBox="0 0 28 29" fill="none" xmlns="http://www.w3.org/2000/svg">
<path d="M2.9165 5.13541C2.9165 4.89505 3.00869 4.66455 3.17279 4.49459C3.33688 4.32464 3.55944 4.22916 3.7915 4.22916H4.4425C5.55084 4.22916 6.21584 5.00128 6.595 5.71903C6.84817 6.19753 7.03134 6.75216 7.17484 7.25482L7.2915 7.24999H21.8725C22.8408 7.24999 23.5408 8.20941 23.2748 9.17486L21.1422 16.9191C20.951 17.6137 20.5464 18.2249 19.9898 18.6601C19.4332 19.0952 18.7549 19.3307 18.0575 19.3309H11.1182C10.4152 19.3309 9.73177 19.0919 9.17278 18.6505C8.6138 18.209 8.21025 17.5897 8.02417 16.8877L7.1375 13.5382L5.6675 8.40516L5.66634 8.39549C5.48434 7.71036 5.314 7.06874 5.05967 6.59024C4.81584 6.12503 4.61984 6.04166 4.44367 6.04166H3.7915C3.55944 6.04166 3.33688 5.94618 3.17279 5.77622C3.00869 5.60627 2.9165 5.37576 2.9165 5.13541ZM10.4998 25.375C11.1187 25.375 11.7122 25.1204 12.1498 24.6672C12.5873 24.214 12.8332 23.5993 12.8332 22.9583C12.8332 22.3174 12.5873 21.7027 12.1498 21.2495C11.7122 20.7963 11.1187 20.5417 10.4998 20.5417C9.881 20.5417 9.28751 20.7963 8.84992 21.2495C8.41234 21.7027 8.1665 22.3174 8.1665 22.9583C8.1665 23.5993 8.41234 24.214 8.84992 24.6672C9.28751 25.1204 9.881 25.375 10.4998 25.375ZM18.6665 25.375C19.2853 25.375 19.8788 25.1204 20.3164 24.6672C20.754 24.214 20.9998 23.5993 20.9998 22.9583C20.9998 22.3174 20.754 21.7027 20.3164 21.2495C19.8788 20.7963 19.2853 20.5417 18.6665 20.5417C18.0477 20.5417 17.4542 20.7963 17.0166 21.2495C16.579 21.7027 16.3332 22.3174 16.3332 22.9583C16.3332 23.5993 16.579 24.214 17.0166 24.6672C17.4542 25.1204 18.0477 25.375 18.6665 25.375Z" fill="#F8F8F8"/>
</svg>
