<svg width="35" height="39" viewBox="0 0 35 39" fill="none" xmlns="http://www.w3.org/2000/svg">
<path d="M3.646 6.90625C3.646 6.58302 3.76123 6.27302 3.96635 6.04446C4.17147 5.8159 4.44967 5.6875 4.73975 5.6875H5.5535C6.93891 5.6875 7.77016 6.72587 8.24412 7.69112C8.56058 8.33462 8.78954 9.0805 8.96891 9.7565L9.11475 9.75H27.341C28.5514 9.75 29.4264 11.0402 29.0939 12.3386L26.4281 22.7533C26.1891 23.6874 25.6834 24.5093 24.9877 25.0946C24.2919 25.6798 23.444 25.9965 22.5722 25.9967H13.8981C13.0194 25.9968 12.1651 25.6753 11.4663 25.0817C10.7676 24.488 10.2632 23.6551 10.0306 22.711L8.92225 18.2065L7.08475 11.3035L7.08329 11.2905C6.85579 10.3691 6.64287 9.50625 6.32495 8.86275C6.02016 8.23712 5.77516 8.125 5.55495 8.125H4.73975C4.44967 8.125 4.17147 7.9966 3.96635 7.76804C3.76123 7.53948 3.646 7.22948 3.646 6.90625ZM13.1252 34.125C13.8987 34.125 14.6406 33.7826 15.1876 33.1731C15.7345 32.5636 16.0418 31.737 16.0418 30.875C16.0418 30.013 15.7345 29.1864 15.1876 28.5769C14.6406 27.9674 13.8987 27.625 13.1252 27.625C12.3516 27.625 11.6097 27.9674 11.0628 28.5769C10.5158 29.1864 10.2085 30.013 10.2085 30.875C10.2085 31.737 10.5158 32.5636 11.0628 33.1731C11.6097 33.7826 12.3516 34.125 13.1252 34.125ZM23.3335 34.125C24.107 34.125 24.8489 33.7826 25.3959 33.1731C25.9429 32.5636 26.2502 31.737 26.2502 30.875C26.2502 30.013 25.9429 29.1864 25.3959 28.5769C24.8489 27.9674 24.107 27.625 23.3335 27.625C22.5599 27.625 21.8181 27.9674 21.2711 28.5769C20.7241 29.1864 20.4168 30.013 20.4168 30.875C20.4168 31.737 20.7241 32.5636 21.2711 33.1731C21.8181 33.7826 22.5599 34.125 23.3335 34.125Z" fill="black"/>
</svg>
