<svg width="57" height="58" viewBox="0 0 57 58" fill="none" xmlns="http://www.w3.org/2000/svg">
<path d="M39.3206 31.1896L38.24 32.2844C38.24 32.2844 35.6678 34.8847 28.6497 27.7845C21.6316 20.6844 24.2037 18.084 24.2037 18.084L24.883 17.3929C26.5621 15.6964 26.7212 12.9704 25.2558 10.979L22.2633 6.91178C20.4488 4.44678 16.9457 4.12053 14.8676 6.22303L11.1388 9.99303C10.1105 11.037 9.4217 12.3855 9.50483 13.8839C9.71858 17.7191 11.4238 25.9672 20.9333 35.5904C31.02 45.7935 40.4843 46.1995 44.3532 45.8322C45.5787 45.7162 46.6427 45.083 47.5001 44.213L50.8726 40.8007C53.1526 38.4976 52.5113 34.5464 49.5948 32.9344L45.0586 30.4235C43.1443 29.3674 40.8168 29.6768 39.3206 31.1896Z" fill="black"/>
</svg>
