<svg width="25" height="22" viewBox="0 0 25 22" fill="none" xmlns="http://www.w3.org/2000/svg">
<g clip-path="url(#clip0_82_391)">
<path opacity="0.991" fill-rule="evenodd" clip-rule="evenodd" d="M11.548 -0.0214844C12.0525 -0.0214844 12.5571 -0.0214844 13.0616 -0.0214844C15.5175 0.356206 17.1858 1.57365 18.0665 3.63086C18.836 6.35628 17.8838 8.46888 15.2101 9.96875C13.4722 10.7161 11.6981 10.7877 9.8878 10.1836C7.28985 9.0402 6.09356 7.18536 6.29894 4.61914C6.61539 2.82272 7.6652 1.46921 9.44835 0.558594C10.1153 0.255429 10.8152 0.0620701 11.548 -0.0214844Z" fill="white"/>
<path opacity="0.994" fill-rule="evenodd" clip-rule="evenodd" d="M19.2139 21.9785C14.7055 21.9785 10.197 21.9785 5.68851 21.9785C4.1286 21.8021 3.01369 21.086 2.34379 19.8301C2.19616 19.512 2.09851 19.1826 2.05082 18.8418C1.91968 17.1877 2.13127 15.5692 2.68558 13.9863C3.04956 12.9795 3.67618 12.1273 4.56547 11.4297C5.56703 10.7635 6.69007 10.5057 7.93461 10.6562C8.47186 10.9212 8.99271 11.2077 9.49711 11.5156C11.3592 12.4665 13.2473 12.5095 15.1612 11.6445C15.7552 11.3043 16.3574 10.9749 16.9678 10.6562C18.97 10.4809 20.4918 11.1469 21.5332 12.6543C22.3145 13.9576 22.754 15.3469 22.8516 16.8223C22.9219 17.5105 22.9219 18.198 22.8516 18.8848C22.46 20.6646 21.2474 21.6959 19.2139 21.9785Z" fill="white"/>
</g>
<defs>
<clipPath id="clip0_82_391">
<rect width="25" height="22" fill="white"/>
</clipPath>
</defs>
</svg>
