<svg width="62" height="58" viewBox="0 0 62 58" fill="none" xmlns="http://www.w3.org/2000/svg">
<path d="M30.9998 27.7916C29.287 27.7916 27.6443 27.1551 26.4331 26.022C25.2219 24.889 24.5415 23.3523 24.5415 21.7499C24.5415 20.1476 25.2219 18.6108 26.4331 17.4778C27.6443 16.3448 29.287 15.7083 30.9998 15.7083C32.7127 15.7083 34.3554 16.3448 35.5666 17.4778C36.7777 18.6108 37.4582 20.1476 37.4582 21.7499C37.4582 22.5433 37.2911 23.329 36.9666 24.062C36.642 24.795 36.1663 25.461 35.5666 26.022C34.9669 26.583 34.2549 27.0281 33.4713 27.3317C32.6878 27.6353 31.848 27.7916 30.9998 27.7916ZM30.9998 4.83325C26.2038 4.83325 21.6043 6.61554 18.213 9.78803C14.8217 12.9605 12.9165 17.2633 12.9165 21.7499C12.9165 34.4374 30.9998 53.1666 30.9998 53.1666C30.9998 53.1666 49.0832 34.4374 49.0832 21.7499C49.0832 17.2633 47.178 12.9605 43.7867 9.78803C40.3954 6.61554 35.7958 4.83325 30.9998 4.83325Z" fill="black"/>
</svg>
